<?xml version="1.0" standalone="no"?>
<!DOCTYPE svg PUBLIC "-//W3C//DTD SVG 20010904//EN"
 "http://www.w3.org/TR/2001/REC-SVG-20010904/DTD/svg10.dtd">
<svg version="1.0" xmlns="http://www.w3.org/2000/svg"
 width="500.000000pt" height="500.000000pt" viewBox="0 0 500.000000 500.000000"
 preserveAspectRatio="xMidYMid meet">

<g transform="translate(0.000000,500.000000) scale(0.100000,-0.100000)"
fill="#000000" stroke="none">
<path d="M1520 3205 l-23 -24 570 -1 570 0 11 25 12 25 -558 0 -559 0 -23 -25z"/>
<path d="M2860 3221 c0 -39 7 -41 182 -41 l169 0 -3 23 c-3 22 -5 22 -175 25
-104 1 -173 -1 -173 -7z"/>
<path d="M3492 3205 c11 -24 14 -25 107 -25 90 1 97 2 114 25 l18 25 -125 0
-126 0 12 -25z"/>
<path d="M1385 3199 l-30 -19 69 0 c75 0 78 2 25 23 -31 13 -37 13 -64 -4z"/>
<path d="M1296 3124 c-3 -9 -6 -20 -6 -25 0 -5 284 -9 665 -9 l665 0 0 25 0
25 -659 0 c-587 0 -660 -2 -665 -16z"/>
<path d="M2882 3118 c3 -23 5 -23 177 -26 156 -2 173 -1 167 14 -3 8 -6 20 -6
25 0 5 -74 9 -171 9 l-170 0 3 -22z"/>
<path d="M3522 3118 c3 -21 9 -23 57 -23 44 0 56 4 69 23 l14 22 -71 0 c-69 0
-72 -1 -69 -22z"/>
<path d="M1260 3025 l0 -25 675 0 675 0 0 25 0 25 -675 0 -675 -1 0 -24z"/>
<path d="M2900 3025 l0 -25 174 0 173 0 -5 25 -4 25 -169 0 -169 0 0 -25z"/>
<path d="M3537 3043 c-4 -3 -7 -15 -7 -25 0 -27 38 -20 58 10 14 21 13 22 -15
22 -16 0 -33 -3 -36 -7z"/>
<path d="M3855 2866 c-17 -7 -36 -20 -44 -29 -8 -11 -28 -17 -52 -17 -74 0
-37 -32 76 -66 33 -10 64 -21 68 -25 9 -7 -34 -82 -54 -94 -6 -4 -24 7 -40 25
-35 38 -52 30 -71 -32 -13 -45 -9 -51 57 -69 43 -12 38 -16 112 76 28 36 34
39 52 27 19 -11 23 -9 41 20 45 74 11 166 -68 188 -45 12 -40 12 -77 -4z"/>
<path d="M3098 2813 c7 -3 16 -2 19 1 4 3 -2 6 -13 5 -11 0 -14 -3 -6 -6z"/>
<path d="M2445 2803 c-430 -10 -1389 -35 -1535 -39 -138 -5 -184 -10 -218 -25
-77 -33 -73 31 -70 -1043 3 -938 3 -954 23 -976 47 -52 -23 -49 1392 -52 725
-2 1323 1 1330 5 9 5 6 17 -12 43 l-24 35 -278 2 -278 1 267 6 c146 3 269 8
273 12 4 3 2 30 -4 60 -6 29 -51 330 -101 668 -50 338 -93 625 -95 638 l-5 22
-234 0 c-195 0 -236 2 -246 15 -7 8 -10 22 -6 30 5 13 39 15 236 15 177 0 230
3 230 13 -1 34 -14 37 -240 39 -217 3 -225 4 -225 23 0 19 8 20 220 25 218 5
220 5 223 27 l3 23 -223 2 c-209 3 -223 4 -226 22 -2 10 2 22 10 27 7 5 109 9
226 9 155 0 212 3 212 12 0 6 -5 40 -11 75 -11 60 -12 63 -40 63 -15 0 -51 5
-79 11 -47 10 -54 9 -74 -10 -29 -27 -80 -27 -107 0 -16 16 -20 31 -17 62 2
36 -3 51 -42 105 -44 62 -44 62 -89 60 -26 -1 -100 -4 -166 -5z m-1045 -103
c0 -5 -12 -10 -27 -10 -81 0 -523 -32 -556 -41 -71 -19 -71 -20 -77 -414 l-6
-350 -2 350 c-2 327 -1 352 17 381 10 17 32 36 47 42 16 6 153 20 304 30 151
11 281 20 288 21 6 0 12 -3 12 -9z m1206 -13 c53 -46 23 -127 -46 -127 -69 0
-99 81 -46 127 15 12 36 23 46 23 10 0 31 -11 46 -23z m-620 -127 c322 -82
566 -347 624 -677 17 -96 8 -276 -19 -371 -78 -271 -281 -482 -551 -573 -82
-28 -112 -33 -227 -37 -112 -4 -147 -1 -226 17 -166 38 -307 120 -428 248
-113 120 -185 264 -214 428 -19 110 -19 179 0 290 54 309 273 563 570 660 150
49 317 54 471 15z"/>
<path d="M1650 2529 c-194 -34 -368 -136 -491 -287 -250 -309 -235 -751 34
-1039 386 -412 1056 -313 1301 192 62 128 71 173 71 350 0 154 -1 163 -31 247
-93 258 -290 446 -546 518 -85 24 -255 34 -338 19z m-222 -245 c-37 -20 -88
-59 -114 -86 -25 -27 -48 -47 -51 -44 -11 11 104 113 156 139 81 40 87 32 9
-9z m102 -51 c0 -5 -25 -21 -55 -37 -31 -16 -78 -53 -105 -83 -28 -30 -50 -51
-50 -46 0 20 90 106 144 138 65 38 66 38 66 28z m779 -208 c17 -34 33 -78 36
-96 6 -39 2 -32 -39 71 -15 36 -47 90 -73 120 l-47 55 47 -44 c25 -24 59 -72
76 -106z m-130 2 c45 -59 81 -132 80 -162 0 -17 -2 -16 -11 5 -6 14 -21 48
-34 77 -12 29 -44 76 -71 104 -28 31 -39 47 -26 40 13 -6 41 -35 62 -64z
m-929 -427 c0 -29 47 -127 82 -173 l41 -52 -37 35 c-20 19 -50 62 -66 95 -34
71 -49 122 -31 111 6 -4 11 -11 11 -16z m-85 -67 c19 -67 46 -115 89 -160 16
-18 25 -33 19 -33 -29 0 -112 141 -128 218 -11 53 2 36 20 -25z m959 -124
c-15 -22 -46 -57 -69 -76 -43 -37 -114 -78 -122 -69 -3 2 14 14 37 26 52 26
136 104 157 143 8 16 17 26 20 23 3 -3 -7 -24 -23 -47z m99 -54 c-31 -55 -157
-155 -213 -169 -14 -4 -2 5 25 20 66 35 128 86 162 133 27 39 44 49 26 16z"/>
<path d="M3446 2760 c-33 -43 -130 -120 -168 -132 -12 -4 14 -142 53 -282 l11
-38 46 6 c25 3 69 17 98 30 52 24 52 24 58 78 3 29 8 112 11 183 6 123 5 132
-15 158 -41 51 -53 51 -94 -3z"/>
<path d="M3750 2500 c-14 -3 -24 -13 -23 -21 1 -8 7 -51 13 -97 l12 -82 -41
-72 c-23 -39 -44 -82 -47 -94 -3 -13 4 -52 15 -87 48 -144 50 -175 19 -324
-55 -271 -97 -593 -113 -869 l-7 -111 -35 -12 c-41 -15 -115 -79 -107 -92 3
-5 57 -9 120 -9 l114 0 -2 68 c-1 48 14 135 51 307 55 251 103 445 121 486 7
17 9 -91 7 -363 l-3 -388 -31 -32 c-17 -18 -36 -43 -42 -56 -16 -30 -4 -34 85
-30 l69 3 1 65 c0 36 10 130 22 210 43 296 61 458 78 702 5 76 2 113 -11 168
-21 85 -17 118 26 256 l32 103 -52 80 -53 80 32 97 c27 79 30 98 19 105 -31
20 -44 3 -73 -94 l-29 -97 -57 0 -57 0 -7 97 c-4 54 -10 100 -14 104 -4 3 -18
3 -32 -1z"/>
<path d="M3439 2171 l-66 -6 63 -264 c35 -145 65 -265 67 -267 2 -2 7 64 10
148 4 84 10 208 13 276 6 102 5 122 -7 120 -8 -1 -44 -4 -80 -7z"/>
<path d="M3431 1024 c-29 -37 -29 -122 1 -182 28 -59 34 -42 39 97 4 114 -4
131 -40 85z"/>
</g>
</svg>
